<svg width="453" height="523" viewBox="0 0 453 523" fill="none" xmlns="http://www.w3.org/2000/svg">
<path d="M389.711 0.5H306.38C299.516 0.5 292.934 3.22664 288.08 8.08008C283.227 12.9335 280.5 19.5162 280.5 26.38C280.5 33.2436 283.227 39.826 288.08 44.6793C292.934 49.5325 299.516 52.259 306.38 52.259H313.811L318.471 58.28L323.131 52.259H389.711C396.575 52.259 403.157 49.5325 408.01 44.6792C412.863 39.826 415.59 33.2435 415.59 26.38C415.59 22.9814 414.921 19.6161 413.62 16.4762C412.32 13.3363 410.414 10.4833 408.011 8.08014C405.607 5.67695 402.755 3.77062 399.615 2.47002C396.475 1.16941 393.11 0.5 389.711 0.5Z" fill="white" stroke="#6CA0FF" stroke-linecap="round" stroke-linejoin="round"/>
<path d="M304.755 42.394C313.599 42.394 320.769 35.2243 320.769 26.38C320.769 17.5357 313.599 10.366 304.755 10.366C295.911 10.366 288.741 17.5357 288.741 26.38C288.741 35.2243 295.911 42.394 304.755 42.394Z" fill="#E6EFFC"/>
<path d="M316.75 29.2108C318.314 22.5866 314.212 15.9488 307.587 14.385C300.963 12.8211 294.325 16.9234 292.762 23.5477C291.198 30.172 295.3 36.8097 301.924 38.3736C308.549 39.9374 315.186 35.8351 316.75 29.2108Z" fill="#FF5A89"/>
<path d="M326.698 13.076H399.027" stroke="#E6EFFC" stroke-width="3" stroke-linecap="round" stroke-linejoin="round"/>
<path d="M326.698 21.945H399.027" stroke="#E6EFFC" stroke-width="3" stroke-linecap="round" stroke-linejoin="round"/>
<path d="M384.57 30.814H399.028" stroke="#E6EFFC" stroke-width="3" stroke-linecap="round" stroke-linejoin="round"/>
<path d="M326.698 30.814H376.342" stroke="#E6EFFC" stroke-width="3" stroke-linecap="round" stroke-linejoin="round"/>
<path d="M326.698 39.684H364.969" stroke="#E6EFFC" stroke-width="3" stroke-linecap="round" stroke-linejoin="round"/>
<path d="M245.342 82.2998C244.236 80.3203 242.484 78.7802 240.38 77.9367C239.759 77.7794 239.121 77.7007 238.481 77.7023C235.903 77.6659 233.362 78.3138 231.116 79.5801C230.472 79.9238 229.885 80.3635 229.374 80.8842C229.097 81.1309 228.884 81.4402 228.751 81.7862C228.618 82.1323 228.57 82.505 228.611 82.8734C228.664 83.492 228.672 84.1136 228.635 84.7334C228.551 85.6913 228.389 86.6408 228.151 87.5726C227.611 90.0265 227.635 92.5707 228.22 95.0141C228.462 95.9642 228.414 96.9651 228.081 97.8873C227.701 98.6408 227.183 99.317 226.556 99.8814C225.36 101.066 224.408 102.474 223.754 104.025C223.092 105.616 223.044 107.395 223.618 109.02C223.941 109.845 224.466 110.569 224.864 111.361C225.866 113.414 226.029 115.776 225.318 117.946C225.284 118.063 225.275 118.186 225.292 118.307C225.309 118.427 225.351 118.543 225.416 118.646C225.481 118.75 225.566 118.838 225.668 118.906C225.769 118.974 225.883 119.02 226.003 119.04C230.418 119.96 234.943 120.23 239.436 119.84C244.348 119.406 249.018 117.513 252.846 114.404" fill="#00276F"/>
<path d="M230.831 77.3695C228.957 85.8517 230.389 108.768 236.741 111.613C243.093 114.459 251.107 108.09 253.494 105.225C256.983 101.024 263.577 83.3194 257.661 77.6733C251.746 72.0271 233.456 65.4744 230.831 77.3695Z" fill="#F886BC"/>
<path d="M245.298 106.455L249.937 123.292L248.089 127.842C248.089 127.842 246.858 136.926 248.359 137.386C254.384 139.232 267.662 120.698 267.662 120.698L257.047 96.4556" fill="#F886BC"/>
<path d="M262.097 78.7721C260.256 70.7408 250.18 65.6424 241.494 66.9756C234.385 64.9298 220.564 72.4198 226.745 87.146C226.745 87.146 232.239 82.0654 239.273 75.3382C243.716 89.2759 260.602 96.3118 260.602 96.3118C262.89 90.7574 263.411 84.6334 262.097 78.7721Z" fill="#00276F"/>
<path d="M239.468 67.4103C245.857 58.8861 261.258 64.4466 265.282 68.7354C269.84 73.593 271.652 78.4942 276.916 81.7196C279.35 83.2096 282.381 84.1743 283.727 86.6919C285.582 90.1614 283.31 95.0238 285.752 98.1087C286.781 99.4015 291.73 103.39 291.73 109.828C286.329 113.515 281.948 112.328 275.948 114.747C271.593 116.502 265.607 119.37 260.715 120.184C260.578 120.205 260.439 120.193 260.307 120.15C260.176 120.108 260.056 120.035 259.957 119.938C259.858 119.842 259.783 119.723 259.737 119.593C259.692 119.462 259.677 119.323 259.694 119.186C259.933 117.095 260.318 114.459 259.421 112.816C258.864 112.021 258.265 111.256 257.626 110.526C256.483 108.417 256.188 105.952 256.8 103.634C257.415 101.333 257.488 98.9215 257.013 96.5881C256.205 94.532 254.797 92.7661 252.974 91.5188" fill="#00276F"/>
<path d="M255.855 66.2613C254.622 66.3922 253.754 65.0995 253.302 63.9441C252.604 62.4474 252.443 60.7558 252.846 59.1544C254.056 55.5249 258.888 55.2938 261.662 57.1166C264.057 58.6922 265.804 62.2198 263.865 64.8054C262.511 66.612 259.707 67.016 257.647 67.4103" fill="#00276F"/>
<path d="M253.008 94.3209C253.035 93.9977 253.331 93.7682 253.601 93.584C254.832 92.7453 256.348 91.8711 257.721 92.4528C258.423 92.7948 258.963 93.3972 259.227 94.1318C259.741 95.3755 259.908 96.7356 259.708 98.0666C259.509 99.3977 258.952 100.649 258.096 101.688C256.467 103.448 252.179 104.647 251.46 101.399" fill="#F886BC"/>
<path d="M236.905 91.7968C236.905 91.7968 232.743 99.054 234.053 100.361C235.364 101.669 238.028 100.869 238.028 100.869" stroke="#D34F9B" stroke-width="0.75" stroke-miterlimit="10"/>
<path d="M242.055 91.5398C242.073 92.0921 242.157 92.6401 242.307 93.1719C242.345 93.3315 242.422 93.479 242.533 93.6005C242.643 93.722 242.782 93.8136 242.937 93.8667C243.092 93.9198 243.258 93.9327 243.42 93.9042C243.581 93.8756 243.733 93.8066 243.86 93.7036C244.928 92.9764 243.976 90.1242 242.577 90.7108C242.417 90.7811 242.282 90.8976 242.189 91.0454C242.096 91.1931 242.049 91.3653 242.055 91.5398Z" fill="#00276F"/>
<path d="M231.323 91.5398C231.341 92.092 231.425 92.64 231.575 93.1719C231.612 93.3318 231.69 93.4796 231.8 93.6013C231.91 93.723 232.049 93.8147 232.205 93.8679C232.36 93.921 232.526 93.9338 232.688 93.9051C232.85 93.8764 233.002 93.807 233.129 93.7036C234.196 92.9764 233.244 90.1242 231.844 90.7108C231.685 90.7813 231.55 90.8978 231.457 91.0455C231.364 91.1933 231.317 91.3654 231.323 91.5398Z" fill="#00276F"/>
<path d="M239.197 88.5875C239.197 88.5875 241.798 85.3426 246.247 88.5875" stroke="#00276F" stroke-width="0.75" stroke-miterlimit="10" stroke-linecap="round"/>
<path d="M230.898 88.7992C231.159 88.4855 231.483 88.2295 231.848 88.0474C232.213 87.8652 232.613 87.7609 233.02 87.741C233.428 87.7211 233.836 87.7861 234.217 87.9318C234.599 88.0775 234.946 88.3007 235.236 88.5875" stroke="#00276F" stroke-width="0.75" stroke-miterlimit="10" stroke-linecap="round"/>
<path d="M235.913 104.463L243.993 102.507C243.993 102.507 242.564 107.392 238.558 107.392C236.611 107.392 235.913 104.463 235.913 104.463Z" fill="white"/>
<path d="M246.638 111.309C249.849 110.185 252.537 107.923 254.194 104.951" stroke="#D34F9B" stroke-width="0.75" stroke-miterlimit="10"/>
<path d="M176.714 161.842C176.714 161.842 175.421 165.371 177.642 171.407C180.498 179.191 211.276 227.319 230.804 229.113C250.332 230.907 269.995 172.327 269.995 154.294C269.995 136.262 254.098 130.882 243.902 143.884C233.706 156.886 221.959 202.083 221.959 202.083L176.714 161.842Z" fill="#DD3C91"/>
<path d="M196.858 177.63C195.522 174.29 193.732 171.15 191.538 168.3C190.649 167.083 187.579 162.805 185.828 163.633C184.622 164.202 185.891 167.408 186.369 168.308C187.098 169.568 187.973 170.739 188.975 171.795" fill="#DD3C91"/>
<path d="M196.735 457.679L188.995 495.317C188.995 495.317 158.122 513.472 158.122 513.857C158.122 514.241 187.51 515.303 187.51 515.303L200.518 508.942H213.22C213.568 508.943 213.912 508.864 214.226 508.713C214.54 508.562 214.816 508.343 215.034 508.07C215.251 507.798 215.404 507.48 215.482 507.14C215.559 506.801 215.56 506.448 215.482 506.108L212.837 494.507L226.604 454.887" fill="#F886BC"/>
<path d="M160.239 509.506C164.867 506.816 182.237 498.232 182.237 498.232L200.421 508.936H216.127V517.994H200.421V511.153H198.422C197.72 511.154 197.038 511.386 196.483 511.814L189.623 517.108C188.879 517.682 187.965 517.993 187.025 517.994H158.122C154.076 518 153.169 513.622 160.239 509.506Z" fill="#00276F"/>
<path d="M206.965 510.649L214.432 500.583L213.558 496.748L204.706 508.973L206.965 510.649Z" fill="#00276F"/>
<path d="M303.1 206.299C303.1 206.299 326.8 243.734 300.422 281.54C289.757 296.82 253.924 360.601 253.924 360.601L234.155 475.158H181.909C181.909 475.158 198.671 361.678 206.212 341.209C213.753 320.74 260.864 224.663 260.864 224.663V209.796" fill="#EF8318"/>
<path d="M279.773 279.266C269.108 294.545 237.448 360.601 237.448 360.601L217.68 475.158" stroke="#AF480E" stroke-width="0.75" stroke-miterlimit="10"/>
<path d="M283.777 279.266C273.112 294.545 241.452 360.601 241.452 360.601L221.685 475.158" stroke="#AF480E" stroke-width="0.75" stroke-miterlimit="10" stroke-dasharray="2 1.5"/>
<path d="M272.712 430.019L299.249 456.749C299.249 456.749 284.58 488.88 284.798 489.192C285.016 489.504 309.36 473.732 309.36 473.732L316.269 461.236L326.531 454.05C326.813 453.853 327.046 453.595 327.214 453.295C327.382 452.995 327.48 452.662 327.502 452.319C327.523 451.976 327.467 451.633 327.338 451.314C327.208 450.996 327.009 450.711 326.754 450.48L318.053 442.606L295.269 410.863" fill="#F886BC"/>
<path d="M284.052 484.485C286.269 479.694 295.444 462.931 295.444 462.931L316.188 461.289L328.876 452.402L334 459.719L321.312 468.606L317.442 463.08L315.826 464.211C315.259 464.608 314.84 465.182 314.634 465.843L312.087 474.001C311.811 474.886 311.249 475.654 310.489 476.185L287.143 492.539C283.871 494.829 280.665 491.804 284.052 484.485Z" fill="#00276F"/>
<path d="M322.438 458.966L322.776 446.61L319.9 444.007L319.664 458.89L322.438 458.966Z" fill="#00276F"/>
<path d="M258.393 209.465L256.483 224.655C256.483 224.655 193.776 301.532 193.776 333.971C193.776 365.633 264.551 444.645 264.551 444.645L304.177 414.488L252.657 340.727C252.657 340.727 303.024 279.361 311.717 270.667C326.26 256.124 325.271 231.346 306.913 206.299" fill="#FFAB37"/>
<path d="M257.157 219.304C257.157 219.304 285.021 222.172 311.471 213.084" stroke="#AF480E" stroke-width="0.75" stroke-miterlimit="10"/>
<path d="M268.956 219.731V210.769" stroke="#AF480E" stroke-width="0.75" stroke-miterlimit="10" stroke-linecap="round"/>
<path d="M303.832 215.385L300.755 207.099" stroke="#AF480E" stroke-width="0.75" stroke-miterlimit="10"/>
<path d="M294.317 421.991L242.68 347.443C241.325 345.491 240.621 343.16 240.669 340.783C240.717 338.407 241.513 336.106 242.945 334.209C254.972 318.277 285.362 278.122 291.737 270.667C305.11 255.028 306.511 236.629 296.423 217.073" stroke="#AF480E" stroke-width="0.75" stroke-miterlimit="10"/>
<path d="M295.119 415.59L246.436 345.415C245.489 344.053 244.997 342.427 245.03 340.768C245.062 339.11 245.618 337.504 246.617 336.18C257.39 321.903 290.245 278.453 296.896 270.667C310.269 255.028 310.836 235.965 300.755 216.408" stroke="#AF480E" stroke-width="0.75" stroke-miterlimit="10" stroke-dasharray="2 1.5"/>
<path d="M284.313 218.879C284.313 218.879 286.049 225.138 291.1 227.562C294.557 229.155 298.144 230.452 301.82 231.44" stroke="#AF480E" stroke-width="0.75" stroke-miterlimit="10"/>
<path d="M314.007 235.52C316.178 235.262 318.319 234.794 320.399 234.123" stroke="#AF480E" stroke-width="0.75" stroke-miterlimit="10"/>
<path d="M314.007 238.618C316.395 238.463 318.756 238.024 321.041 237.311" stroke="#AF480E" stroke-width="0.75" stroke-miterlimit="10"/>
<path d="M258.531 437.758L265.699 447.791L306.634 415.7L298.861 406.878L258.531 437.758Z" fill="#AF480E"/>
<path d="M180.954 475.158L183.609 463.872H236.102V475.158H180.954Z" fill="#AF480E"/>
<path d="M201.542 181.888C201.597 181.943 201.641 182.008 201.67 182.08C201.7 182.151 201.715 182.228 201.715 182.306C201.715 182.384 201.7 182.46 201.67 182.532C201.641 182.604 201.597 182.669 201.542 182.724L200.154 184.131C200.099 184.186 200.034 184.23 199.962 184.259C199.891 184.289 199.814 184.305 199.736 184.305C199.659 184.305 199.582 184.289 199.51 184.259C199.438 184.23 199.373 184.186 199.319 184.131L171.891 157.082C171.78 156.971 171.718 156.821 171.718 156.665C171.718 156.508 171.78 156.358 171.891 156.248L173.279 154.839C173.389 154.728 173.539 154.666 173.696 154.666C173.852 154.666 174.002 154.728 174.113 154.839" fill="#00276F"/>
<path d="M175.426 158.421L177.642 160.606" stroke="#2D5491" stroke-width="0.5" stroke-miterlimit="10" stroke-linecap="round"/>
<path d="M178.514 161.511L178.85 161.842" stroke="#2D5491" stroke-width="0.5" stroke-miterlimit="10" stroke-linecap="round"/>
<path d="M299.024 144.183C295.969 137.989 291.522 132.587 286.032 128.397C280.541 124.208 274.156 121.346 267.376 120.034C267.376 120.034 250.409 133.946 248.095 127.847C245.629 131.515 229.847 158.896 232.001 172.902C234.155 186.907 246.274 188.848 248.698 191.889C251.122 194.931 256.85 214.377 257.606 215.725C282.043 215.25 306.913 206.299 306.913 206.299C306.913 206.299 310.003 166.782 299.024 144.183Z" fill="#0070E4"/>
<path d="M290.994 149.672C286.7 133.311 273.014 124.615 260.958 128.959C250.564 132.705 248.459 144.825 251.447 160.782C254.434 176.74 253.694 198.292 253.694 198.292C253.694 198.292 216.166 184.416 209.108 181.604C201.872 175.444 192.941 169.012 191.428 169.012C189.916 169.012 190.657 171.527 192.721 173.592C194.87 175.741 198.341 178.871 195.432 178.616C193.24 178.425 178.939 164.04 178.939 164.04C177.737 165.242 179.157 168.586 179.157 168.586C179.563 172.527 181.208 176.239 183.855 179.188C214.936 214.519 251.54 239.129 274.667 230.695C296.447 222.751 292.524 155.501 290.994 149.672Z" fill="#F886BC"/>
<path d="M189.827 180.387C185.849 176.859 182.273 172.902 179.162 168.59" stroke="#D34F9B" stroke-width="0.75" stroke-miterlimit="10" stroke-linecap="round"/>
<path d="M293.944 152.366C291.074 134.366 277.32 123.589 263.931 126.97C252.389 129.879 248.847 142.658 250.358 160.086C250.8 165.197 251.24 170.825 251.641 176.232L293.917 181.211C294.624 171.61 294.634 161.969 293.944 152.366Z" fill="#0070E4"/>
<path d="M293.917 181.211C294.624 171.61 294.634 161.969 293.944 152.366C291.074 134.366 277.32 123.589 263.931 126.97C252.389 129.879 248.847 142.658 250.358 160.086C250.8 165.197 251.24 170.825 251.641 176.232" stroke="#0E4099" stroke-width="0.75" stroke-miterlimit="10"/>
<path d="M78.8187 176.555V184.898" stroke="#6CA0FF" stroke-linecap="round" stroke-linejoin="round"/>
<path d="M82.9869 180.726H74.6505" stroke="#6CA0FF" stroke-linecap="round" stroke-linejoin="round"/>
<path d="M109.24 44.8861C109.24 45.674 109.007 46.4442 108.569 47.0994C108.132 47.7545 107.51 48.2652 106.783 48.5667C106.055 48.8682 105.255 48.9471 104.483 48.7934C103.711 48.6397 103.001 48.2602 102.445 47.7031C101.888 47.1459 101.509 46.4361 101.355 45.6633C101.202 44.8905 101.28 44.0894 101.582 43.3615C101.883 42.6335 102.393 42.0113 103.048 41.5736C103.702 41.1358 104.472 40.9022 105.259 40.9022C106.315 40.9026 107.327 41.3225 108.074 42.0695C108.82 42.8166 109.24 43.8296 109.24 44.8861V44.8861Z" stroke="#6CA0FF" stroke-linecap="round" stroke-linejoin="round"/>
<path d="M171.669 317.404C173.868 317.404 175.65 315.62 175.65 313.42C175.65 311.219 173.868 309.436 171.669 309.436C169.471 309.436 167.688 311.219 167.688 313.42C167.688 315.62 169.471 317.404 171.669 317.404Z" stroke="#6CA0FF" stroke-linecap="round" stroke-linejoin="round"/>
<path d="M8.8628 500.114C8.8628 500.902 8.62933 501.672 8.19193 502.327C7.75452 502.982 7.13282 503.493 6.40545 503.795C5.67807 504.096 4.87771 504.175 4.10553 504.021C3.33336 503.868 2.62405 503.488 2.06734 502.931C1.51063 502.374 1.13152 501.664 0.977921 500.891C0.824325 500.118 0.903144 499.317 1.20443 498.589C1.50572 497.861 2.01595 497.239 2.67057 496.802C3.32519 496.364 4.09482 496.13 4.88212 496.13C5.40487 496.13 5.92249 496.233 6.40545 496.433C6.88841 496.634 7.32726 496.927 7.6969 497.297C8.06654 497.667 8.35973 498.106 8.55978 498.589C8.75983 499.073 8.8628 499.591 8.8628 500.114Z" stroke="#6CA0FF" stroke-linecap="round" stroke-linejoin="round"/>
<path d="M177.373 428.684C179.572 428.684 181.354 426.9 181.354 424.7C181.354 422.499 179.572 420.716 177.373 420.716C175.175 420.716 173.393 422.499 173.393 424.7C173.393 426.9 175.175 428.684 177.373 428.684Z" stroke="#6CA0FF" stroke-linecap="round" stroke-linejoin="round"/>
<path d="M46.189 154.124C46.189 154.912 45.9555 155.682 45.5181 156.337C45.0807 156.992 44.459 157.503 43.7317 157.804C43.0043 158.106 42.2039 158.185 41.4317 158.031C40.6595 157.877 39.9502 157.498 39.3935 156.941C38.8368 156.384 38.4577 155.674 38.3041 154.901C38.1505 154.128 38.2294 153.327 38.5306 152.599C38.8319 151.871 39.3421 151.249 39.9967 150.811C40.6514 150.373 41.421 150.14 42.2083 150.14C42.7311 150.14 43.2489 150.242 43.7319 150.443C44.215 150.643 44.6539 150.936 45.0236 151.306C45.3933 151.676 45.6865 152.115 45.8865 152.599C46.0864 153.082 46.1892 153.6 46.189 154.124Z" stroke="#6CA0FF" stroke-linecap="round" stroke-linejoin="round"/>
<path d="M54.8553 399.653H99.8111" stroke="#6CA0FF" stroke-linecap="round" stroke-linejoin="round"/>
<path d="M113.504 399.653H133.566" stroke="#6CA0FF" stroke-linecap="round" stroke-linejoin="round"/>
<path d="M262.017 48.2872H245.561" stroke="#6CA0FF" stroke-linecap="round" stroke-linejoin="round"/>
<path d="M166.324 227.346H128.579" stroke="#6CA0FF" stroke-linecap="round" stroke-linejoin="round"/>
<path d="M122.096 227.346H109.245" stroke="#6CA0FF" stroke-linecap="round" stroke-linejoin="round"/>
<path d="M158.063 243.907H190.923" stroke="#6CA0FF" stroke-linecap="round" stroke-linejoin="round"/>
<g clip-path="url(#clip0)">
<path d="M354.723 432.326C357.536 414.626 359.854 396.748 359.231 378.838C358.603 360.774 354.654 339.475 345.341 323.741C339.97 314.66 320.855 293.198 317.015 316.47C315.115 327.977 319.841 338.705 323.207 349.448C326.431 359.74 331.099 369.726 333.844 380.147C338.226 396.791 341.007 413.817 345.963 430.322" fill="#2B6687"/>
<path d="M345.347 441.48C340.715 419.282 335.347 397.227 326.099 377.201C318.386 360.502 307.495 343.851 292.972 331.854C283.183 323.77 254.181 303.98 243.547 319.885C234.947 332.754 247.034 348.389 255.464 357.779C267.536 371.225 281.567 382.744 293.337 396.538C306.933 412.474 318.603 429.972 332.886 445.345" fill="#2B6687"/>
<path d="M310.295 429.489C298.327 414.754 284.388 401.734 268.87 390.793C263.641 387.103 236.91 368.992 236.979 386.638C237.027 398.737 251.514 405.696 260.442 410.388C278.851 420.055 298.771 427.01 315.904 438.788" fill="#2B6687"/>
<path d="M245.478 389.817C245.478 389.817 282.369 406.199 320.979 444.783" stroke="white" stroke-miterlimit="10" stroke-linecap="round"/>
<path d="M262.155 332.607C262.155 332.607 305.056 355.83 343.983 451.028" stroke="white" stroke-miterlimit="10" stroke-linecap="round"/>
<path d="M327.128 321.747C327.128 321.747 351.915 356.67 351.915 445.433" stroke="white" stroke-miterlimit="10" stroke-linecap="round"/>
<path d="M334.417 407.938C272.509 415.345 223.262 477.163 221.615 518H447.218C447.218 459.901 402.907 399.744 334.417 407.938Z" fill="#2B6687"/>
<path d="M348.234 399.153L340.004 528.243" stroke="#FFDCEA" stroke-miterlimit="10" stroke-linecap="round"/>
<path d="M344.118 462.592L302.179 411.893" stroke="#FFDCEA" stroke-miterlimit="10" stroke-linecap="round"/>
<path d="M369.959 525.263L423.916 432.514" stroke="#FFDCEA" stroke-miterlimit="10" stroke-linecap="round"/>
<path d="M382.932 408.926L390.302 490.293" stroke="#FFDCEA" stroke-miterlimit="10" stroke-linecap="round"/>
<path d="M387.714 531.593L444.261 484.414" stroke="#FFDCEA" stroke-miterlimit="10" stroke-linecap="round"/>
<path d="M423.253 501.941L447.686 498.795" stroke="#FFDCEA" stroke-miterlimit="10" stroke-linecap="round"/>
<path d="M345.296 445.245L372.787 399.153" stroke="#FFDCEA" stroke-miterlimit="10" stroke-linecap="round"/>
<path d="M272.01 418.74L336.011 522.434" stroke="#FFDCEA" stroke-miterlimit="10" stroke-linecap="round"/>
<path d="M246.889 445.433L314.528 487.628" stroke="#FFDCEA" stroke-miterlimit="10" stroke-linecap="round"/>
<path d="M233.429 468.26L297.878 525.263" stroke="#FFDCEA" stroke-miterlimit="10" stroke-linecap="round"/>
<path d="M221.615 493.178L269.731 500.368" stroke="#FFDCEA" stroke-miterlimit="10" stroke-linecap="round"/>
<path d="M204.189 447.564C164.567 452.305 133.054 491.866 132 518H276.379C276.379 480.82 248.021 442.32 204.189 447.564Z" fill="#2B6687"/>
<path d="M213.033 441.942L207.765 524.556" stroke="white" stroke-miterlimit="10" stroke-linecap="round"/>
<path d="M210.398 482.541L197.169 445.124" stroke="white" stroke-miterlimit="10" stroke-linecap="round"/>
<path d="M226.936 522.648L261.467 463.291" stroke="white" stroke-miterlimit="10" stroke-linecap="round"/>
<path d="M235.238 448.197L239.955 500.269" stroke="white" stroke-miterlimit="10" stroke-linecap="round"/>
<path d="M238.298 526.698L274.487 496.506" stroke="white" stroke-miterlimit="10" stroke-linecap="round"/>
<path d="M261.041 507.723L276.677 505.709" stroke="white" stroke-miterlimit="10" stroke-linecap="round"/>
<path d="M211.152 471.439L228.745 441.942" stroke="white" stroke-miterlimit="10" stroke-linecap="round"/>
<path d="M160.759 460.423L197.169 522.648" stroke="white" stroke-miterlimit="10" stroke-linecap="round"/>
<path d="M184.953 449.815L184.073 500.269" stroke="white" stroke-miterlimit="10" stroke-linecap="round"/>
<path d="M139.56 486.168L180.806 522.648" stroke="white" stroke-miterlimit="10" stroke-linecap="round"/>
<path d="M132 502.115L162.793 506.716" stroke="white" stroke-miterlimit="10" stroke-linecap="round"/>
</g>
<defs>
<clipPath id="clip0">
<rect width="329" height="224" fill="white" transform="translate(124 299)"/>
</clipPath>
</defs>
</svg>
