<svg width="42" height="42" viewBox="0 0 42 42" fill="none" xmlns="http://www.w3.org/2000/svg">
<circle cx="21" cy="21" r="21" fill="#03A9F4"/>
<path fill-rule="evenodd" clipRule="evenodd" d="M14.1877 16.3342C15.54 13.7378 18.2553 11.9636 21.3818 11.9636C25.3196 11.9636 28.5975 14.7655 29.3331 18.4978C32.1459 18.6925 34.3636 21.0076 34.3636 23.8636C34.3636 26.8494 31.9403 29.2727 28.9545 29.2727H14.8909C11.3101 29.2727 8.39996 26.3626 8.39996 22.7818C8.39996 19.439 10.9314 16.6803 14.1877 16.3342ZM27.2128 18.9197C26.661 16.1394 24.2161 14.1273 21.3818 14.1273C19.1532 14.1273 17.141 15.3605 16.1133 17.3403L15.5724 18.368L14.4149 18.487C12.2188 18.7142 10.5636 20.5641 10.5636 22.7818C10.5636 25.1726 12.5 27.1091 14.8909 27.1091H28.9545C30.7395 27.1091 32.1999 25.6486 32.1999 23.8636C32.1999 22.1868 30.8801 20.7696 29.1925 20.6614L27.5373 20.5424L27.2128 18.9197Z" fill="white"/>
</svg>
